HIERARCHY
ROOT Hips
{
	OFFSET 0.000000 0.000000 0.000000 
	CHANNELS 6 Xposition Yposition Zposition Yrotation Zrotation Xrotation 
	JOINT Lumbar
	{
		OFFSET 0.000000 0.000000 0.000000 
		CHANNELS 3 Zrotation Xrotation Yrotation
		JOINT Neck
		{
			OFFSET 0.000000 0.445665 0.000000 
			CHANNELS 3 Zrotation Xrotation Yrotation
			End Site
			{
				OFFSET 0.000000 0.227535 0.000000 
			}
		}
		JOINT RightShoulder
		{
			OFFSET 0.019635 0.377685 0.194865 
			CHANNELS 3 Zrotation Xrotation Yrotation
			JOINT RightElbow
			{
				OFFSET 0.000000 -0.243375 0.000000 
				CHANNELS 2 Zrotation Yrotation
				JOINT RightWrist
				{
					OFFSET 0.000000 -0.264825 0.000000 
					CHANNELS 2 Zrotation Xrotation
					End Site
					{
						OFFSET 0.006600 -0.176220 0.000990 
					}
				}
			}
		}
		JOINT LeftShoulder
		{
			OFFSET 0.019635 0.377685 -0.194865 
			CHANNELS 3 Zrotation Xrotation Yrotation
			JOINT LeftElbow
			{
				OFFSET 0.000000 -0.243375 0.000000 
				CHANNELS 2 Zrotation Yrotation
				JOINT LeftWrist
				{
					OFFSET 0.000000 -0.264825 0.000000 
					CHANNELS 2 Zrotation Xrotation
					End Site
					{
						OFFSET 0.006600 -0.176220 -0.000990 
					}
				}
			}
		}
	}
	JOINT RightHip
	{
		OFFSET 0.052140 -0.069960 0.075570 
		CHANNELS 3 Zrotation Xrotation Yrotation
		JOINT RightKnee
		{
			OFFSET 0.000000 -0.402270 0.000000 
			CHANNELS 1 Zrotation
			JOINT RightAnkle
			{
				OFFSET 0.000000 -0.404085 0.000000 
				CHANNELS 3 Zrotation Xrotation Yrotation
				End Site
				{
					OFFSET 0.204105 -0.089430 0.008415 
				}
			}
		}
	}
	JOINT LeftHip
	{
		OFFSET 0.052140 -0.069960 -0.075570 
		CHANNELS 3 Zrotation Xrotation Yrotation
		JOINT LeftKnee
		{
			OFFSET 0.000000 -0.402270 0.000000 
			CHANNELS 1 Zrotation
			JOINT LeftAnkle
			{
				OFFSET 0.000000 -0.404085 0.000000 
				CHANNELS 3 Zrotation Xrotation Yrotation
				End Site
				{
					OFFSET 0.204105 -0.089430 -0.008415 
				}
			}
		}
	}
}
MOTION
Frames: 32
Frame Time: 0.02
0 0.95578 0 184.31827 0 -4.54983 8.19668 3.60733 -2.41004 -5.19374 3.18269 -2.2654 6.22018 -17.2598 -27.72847 6.1806 77.43777 -6.09574 -2.26234 8.29626 9.88273 -2.96674 10.94824 -82.74228 -7.72411 2.80014 -6.50141 9.06294 2.83471 -3.63507 1.32433 -4.01522 -5.5078 -6.32467 0.19872 -6.47049 -4.13904 6.29573 5.16879 6.63
-0.00014 0.95576 -0.00029 184.31829 0 -4.54594 8.15664 3.5895 -2.34078 -5.13177 3.10615 -2.18846 5.98414 -16.56367 -23.20325 6.29275 77.7271 -5.34868 -1.3584 7.99624 9.56309 -4.31675 10.87251 -82.55534 -7.45478 2.60502 -6.54304 9.07338 2.80484 -3.56761 1.30791 -3.99089 -5.47679 -6.33126 0.21143 -6.49598 -4.142 6.30071 5.20314 6.65215
-0.00029 0.95574 -0.00058 184.31926 0 -4.542 8.11661 3.57165 -2.27228 -5.06992 3.03048 -2.11227 5.74774 -15.87127 -18.68094 6.40646 78.02298 -4.60031 -0.46142 7.69608 9.2432 -5.66302 10.79552 -82.36757 -7.18454 2.40921 -6.58462 9.08382 2.77598 -3.50041 1.29144 -3.96671 -5.44763 -6.33789 0.22411 -6.52205 -4.14475 6.30543 5.23718 6.67398
-0.00044 0.95571 -0.00087 184.32378 0 -4.53792 8.07692 3.5535 -2.20631 -5.00841 2.95717 -2.03857 5.50871 -15.1851 -14.11378 6.52682 78.34951 -3.83588 0.41724 7.39322 8.91835 -7.00337 10.71247 -82.1718 -6.91026 2.20977 -6.62661 9.09431 2.74242 -3.43369 1.27557 -3.94323 -5.417 -6.34521 0.23692 -6.55016 -4.14638 6.30959 5.27043 6.69461
-0.00056 0.95569 -0.00117 184.30921 0 -4.53474 8.03631 3.53688 -2.12714 -4.94568 2.87092 -1.95198 5.28496 -14.46362 -9.76926 6.61113 78.51566 -3.15228 1.39379 7.10562 8.61871 -8.37032 10.66119 -82.01498 -6.66001 2.03077 -6.66669 9.10448 2.72369 -3.36456 1.25762 -3.91643 -5.38388 -6.34947 0.24918 -6.56682 -4.15358 6.31727 5.308 6.72144
-0.00074 0.95567 -0.00144 184.33521 0 -4.52954 7.9971 3.51707 -2.07587 -4.88519 2.81241 -1.89256 5.02819 -13.81912 -4.96839 6.77216 79.01947 -2.30127 2.16177 6.78539 8.26676 -9.68284 10.54301 -81.77828 -6.3574 1.8079 -6.7106 9.11538 2.68042 -3.3005 1.24334 -3.89645 -5.36301 -6.35979 0.2625 -6.6081 -4.14925 6.31711 5.3363 6.73521
-0.00112 0.95564 -0.00158 184.47666 0 -4.51938 7.96553 3.48743 -2.104 -4.83273 2.82943 -1.9106 4.67768 -13.36391 1.35885 7.15235 80.51634 -0.92243 2.35891 6.36793 7.74991 -10.84494 10.22759 -81.28579 -5.91266 1.4608 -6.76802 9.12804 2.50614 -3.25001 1.24578 -3.89741 -5.31603 -6.39107 0.27999 -6.71741 -4.10929 6.2976 5.33959 6.71113
-0.00155 0.95562 -0.00168 184.65858 0 -4.50706 7.9346 3.45473 -2.15993 -4.78213 2.87465 -1.95564 4.29411 -12.99041 8.10384 7.60869 82.34451 0.61508 2.34496 5.91837 7.18387 -11.95031 9.84654 -80.71815 -5.415 1.0702 -6.82875 9.14149 2.3171 -3.20471 1.25082 -3.90504 -5.29096 -6.42772 0.29835 -6.85158 -4.05827 6.2697 5.33336 6.67408
-0.00193 0.95561 -0.0018 184.81995 0 -4.49533 7.90096 3.42405 -2.20164 -4.72942 2.90775 -1.98672 3.92658 -12.59385 14.49396 8.02643 83.98379 2.03893 2.42425 5.48754 6.65245 -13.08715 9.50324 -80.20774 -4.93826 0.70026 -6.88627 9.1548 2.17754 -3.15714 1.2503 -3.90806 -5.29661 -6.45921 0.31551 -6.97457 -4.01481 6.24413 5.33115 6.64417
-0.00242 0.95556 -0.00192 184.99048 0 -4.48528 7.87775 3.3907 -2.24998 -4.68207 2.93803 -2.02487 3.55395 -12.13705 21.58407 8.46254 85.78519 3.63729 2.51408 5.03923 6.0676 -14.21258 9.12659 -79.60179 -4.47116 0.32405 -6.95135 9.16726 1.86328 -3.10891 1.26789 -3.91712 -5.1364 -6.50222 0.33599 -7.09742 -3.96093 6.22489 5.33043 6.60932
-0.00268 0.95558 -0.00203 185.15148 0 -4.47119 7.83268 3.36219 -2.2912 -4.62394 2.98073 -2.05479 3.18518 -11.82626 27.30998 8.8765 87.32696 4.91071 2.53278 4.61976 5.58451 -15.33224 8.80376 -79.17474 -3.97598 -0.04624 -7.00102 9.18155 1.90209 -3.06366 1.24882 -3.91599 -5.31956 -6.52247 0.34982 -7.22603 -3.92576 6.1904 5.32411 6.58129
-0.00234 0.95576 -0.00212 185.27691 0 -4.44668 7.7291 3.34775 -2.30511 -4.53551 3.05231 -2.05456 2.8251 -11.88896 29.21596 9.22792 88.07627 5.24049 2.3987 4.28681 5.37559 -16.58396 8.64552 -79.27813 -3.37686 -0.41683 -7.01104 9.20178 2.98177 -3.02218 1.124 -3.87784 -6.50798 -6.47872 0.34452 -7.36839 -3.94818 6.11632 5.30657 6.57855
-0.00176 0.956 -0.00221 185.39128 0 -4.41812 7.60287 3.33823 -2.31101 -4.4357 3.13532 -2.04528 2.47161 -12.09772 29.72519 9.55119 88.55146 5.23855 2.20189 3.98402 5.27421 -17.80397 8.54341 -79.56015 -2.75874 -0.77478 -7.00468 9.2236 4.40557 -2.984 0.96285 -3.83044 -8.02951 -6.41172 0.33257 -7.51504 -3.98925 6.02704 5.28338 6.58251
-0.00127 0.95621 -0.00231 185.51021 0 -4.39135 7.48602 3.3266 -2.32118 -4.34177 3.21192 -2.04066 2.1221 -12.24577 30.84232 9.87609 89.14909 5.39441 2.03902 3.66821 5.13607 -18.95418 8.41608 -79.74926 -2.17498 -1.12079 -7.00344 9.244 5.63103 -2.94655 0.82095 -3.79222 -9.35757 -6.35547 0.32403 -7.65707 -4.01956 5.94451 5.26153 6.58122
-0.00087 0.95643 -0.00237 185.6323 0 -4.36486 7.37408 3.31466 -2.32982 -4.24691 3.29391 -2.03464 1.74326 -12.37216 32.08916 10.25087 89.76895 5.52896 1.84565 3.34896 4.9454 -20.46956 8.28652 -79.98773 -1.48036 -1.54341 -7.01232 9.26745 7.03336 -2.90035 0.66786 -3.73375 -10.86416 -6.29922 0.31395 -7.81095 -4.05887 5.86258 5.24452 6.58873
-0.00022 0.95665 -0.00251 185.74493 0 -4.33669 7.24525 3.30415 -2.33916 -4.14876 3.3679 -2.02908 1.42588 -12.57805 32.72651 10.51394 90.27102 5.62337 1.70389 3.04375 4.8899 -21.20295 8.17417 -80.16375 -1.01336 -1.80234 -6.99593 9.28479 8.14883 -2.8725 0.52906 -3.71449 -12.07761 -6.23663 0.30538 -7.94123 -4.08431 5.77559 5.21623 6.57974
0.00094 0.95681 -0.00284 185.83199 0 -4.30626 7.08589 3.2999 -2.35412 -4.06465 3.40925 -2.02703 1.29017 -12.96055 32.03881 10.47624 90.52886 5.71874 1.71883 2.77523 5.18555 -19.91257 8.11046 -80.1507 -1.17492 -1.61721 -6.91576 9.28579 8.38899 -2.89952 0.44188 -3.81162 -12.39879 -6.16846 0.30346 -8.00204 -4.06449 5.68118 5.15788 6.52319
0.00235 0.95697 -0.00324 185.91026 0 -4.27403 6.90809 3.29625 -2.36953 -3.97318 3.44329 -2.02598 1.21327 -13.41867 30.78129 10.32664 90.67196 5.77873 1.78899 2.51845 5.61308 -17.81509 8.06005 -80.06457 -1.567 -1.26693 -6.8102 9.28038 8.32706 -2.94399 0.36985 -3.94733 -12.41234 -6.0934 0.30311 -8.03962 -4.03064 5.58169 5.0885 6.45002
0.00371 0.95713 -0.00363 185.99359 0 -4.24173 6.73212 3.29 -2.3836 -3.87252 3.48588 -2.02389 1.10123 -13.84681 29.77126 10.22719 90.85853 5.83389 1.83586 2.25367 5.97761 -16.00058 7.99367 -79.99378 -1.85726 -0.98853 -6.71507 9.27731 8.4046 -2.97707 0.28857 -4.06164 -12.56908 -6.01756 0.30147 -8.08962 -4.00474 5.48272 5.02437 6.38467
0.00485 0.95729 -0.00396 186.07152 0 -4.21304 6.58405 3.29374 -2.40256 -3.82697 3.50756 -2.02249 1.02666 -14.26271 28.75915 10.12932 91.07806 5.96546 1.87338 2.00332 6.35841 -14.52907 7.96962 -80.00219 -2.13579 -0.72202 -6.62451 9.27676 8.4906 -3.02463 0.21548 -4.19233 -12.72832 -5.95798 0.30208 -8.13117 -3.97253 5.39084 4.95889 6.31808
0.00649 0.95745 -0.00442 186.15945 0 -4.17645 6.37252 3.27679 -2.41107 -3.66182 3.56995 -2.02184 0.88574 -14.71876 27.63675 10.00253 91.19805 5.93426 1.94359 1.72261 6.73575 -12.16415 7.86174 -79.829 -2.49201 -0.39306 -6.51807 9.26935 8.47562 -3.04642 0.13007 -4.29773 -12.79851 -5.8625 0.29843 -8.18567 -3.95026 5.28307 4.89384 6.25047
0.00936 0.95764 -0.00519 186.27103 0 -4.11856 6.00061 3.20226 -2.39533 -3.19526 3.75428 -2.00657 0.56571 -15.27755 26.33474 9.81819 91.13563 5.45991 2.09731 1.37798 7.06647 -7.43171 7.50289 -79.14523 -3.02155 0.07937 -6.37857 9.24529 8.31732 -2.99033 0.0012 -4.32783 -12.75368 -5.67512 0.28292 -8.27353 -3.95598 5.13368 4.83149 6.1805
0.01274 0.95784 -0.00609 186.39411 0 -4.05281 5.56339 3.10695 -2.36863 -2.60339 3.97809 -1.99457 0.17324 -15.87088 24.95225 9.6098 90.968 4.82543 2.28087 0.9978 7.3895 -1.85198 7.06228 -78.28537 -3.61859 0.60644 -6.22304 9.21444 8.05624 -2.90829 -0.13951 -4.3305 -12.6194 -5.4507 0.26301 -8.37666 -3.97292 4.96837 4.77021 6.11077
0.01592 0.95803 -0.00694 186.51612 0 -3.99061 5.14975 3.02125 -2.34341 -2.0515 4.17902 -1.99262 -0.19806 -16.44158 23.62163 9.41571 90.80555 4.267 2.44703 0.61904 7.71865 3.28239 6.66909 -77.52295 -4.17485 1.10129 -6.07215 9.18616 7.79799 -2.83952 -0.27061 -4.34309 -12.4859 -5.23997 0.24498 -8.47814 -3.98617 4.80975 4.70923 6.0432
0.01895 0.95823 -0.00776 186.62059 0 -3.92836 4.76227 2.93469 -2.33132 -1.57192 4.40158 -1.94433 -0.51709 -17.04666 22.20088 9.20297 90.81202 3.69181 2.63232 0.30367 8.0414 8.7221 6.23184 -76.68458 -4.78176 1.63434 -5.93223 9.15965 7.7079 -2.7645 -0.41832 -4.36755 -12.50366 -5.04311 0.22762 -8.55668 -3.99185 4.6532 4.6445 5.96528
0.02242 0.95841 -0.00867 186.76405 0 -3.86447 4.30367 2.84523 -2.29133 -0.91091 4.58724 -1.99041 -0.96372 -17.58435 20.96235 9.02544 90.45184 3.11587 2.78284 -0.15328 8.37389 13.68823 5.86829 -75.9635 -5.29624 2.09712 -5.76513 9.12817 7.2555 -2.69689 -0.53538 -4.36055 -12.1973 -4.80756 0.20768 -8.68666 -4.01759 4.48867 4.58804 5.90945
0.0269 0.95851 -0.00982 187.01564 0 -3.79719 3.67615 2.75073 -2.15899 0.21042 4.6727 -2.32122 -1.73809 -17.95193 20.20264 8.94663 89.0321 2.56237 2.84117 -0.98382 8.73429 17.37525 5.71633 -75.61077 -5.5378 2.36449 -5.53373 9.08248 5.75598 -2.6498 -0.55653 -4.27102 -10.94801 -4.48325 0.18272 -8.95795 -4.08414 4.30575 4.55373 5.9132
0.03181 0.95859 -0.01107 187.30536 0 -3.72874 2.97699 2.65447 -2.00191 1.51147 4.71757 -2.74218 -2.63931 -18.24523 19.64202 8.90574 87.26162 2.01715 2.86132 -1.95668 9.10398 20.50689 5.64425 -75.38295 -5.68326 2.55615 -5.27401 9.03246 3.91031 -2.61257 -0.54796 -4.15116 -9.39011 -4.11936 0.15505 -9.28035 -4.17316 4.11544 4.5279 5.94001
0.03655 0.95868 -0.01229 187.57573 0 -3.66134 2.30355 2.56035 -1.8685 2.73725 4.77366 -3.10557 -3.48804 -18.5565 19.02004 8.85053 85.69964 1.47727 2.89113 -2.87096 9.46961 23.73584 5.54246 -75.0965 -5.87206 2.77383 -5.0234 8.98584 2.27163 -2.57427 -0.55864 -4.04639 -8.02088 -3.76809 0.12804 -9.57711 -4.25926 3.9287 4.4984 5.9566
0.04117 0.95876 -0.01346 187.85569 0 -3.59135 1.65782 2.4597 -1.68392 3.94193 4.86172 -3.53938 -4.32008 -18.93694 18.26505 8.78094 83.92499 0.89107 2.9537 -3.76333 9.83541 27.6555 5.40706 -74.80883 -6.06398 3.02909 -4.78963 8.93287 0.41926 -2.51886 -0.54579 -3.93466 -6.44414 -3.43935 0.1036 -9.88328 -4.31339 3.74047 4.46787 5.97003
0.04616 0.95886 -0.01474 188.12375 0 -3.52672 0.93677 2.37269 -1.5981 5.22967 4.87292 -3.84761 -5.21282 -19.15364 17.84416 8.75209 82.51338 0.40825 2.93954 -4.7314 10.20185 29.98613 5.36536 -74.55928 -6.22668 3.18714 -4.51237 8.89225 -1.06862 -2.50407 -0.57435 -3.83121 -5.22725 -3.05328 0.07284 -10.1834 -4.44129 3.55384 4.44185 5.9981
0.05196 0.95902 -0.01629 188.35666 0 -3.47585 0.03741 2.32238 -1.80904 6.7202 4.68227 -3.78893 -6.27087 -18.94892 18.22456 8.81477 82.17374 0.18473 2.71409 -5.90264 10.57853 28.12232 5.53224 -74.35429 -6.32244 3.09729 -4.13799 8.88637 -1.46604 -2.57968 -0.72751 -3.75266 -5.08296 -2.53119 0.02854 -10.44052 -4.75083 3.3736 4.42319 6.03869
